<svg width="94" height="18" viewBox="0 0 94 18" fill="none" xmlns="http://www.w3.org/2000/svg">
<path fill-rule="evenodd" clip-rule="evenodd" d="M0.81563 1.91821C0.710674 1.67443 0.60632 1.43205 0.5 1.19274C4.18213 -0.773801 8.62602 0.134839 11.0671 3.35433C11.3043 5.1135 10.9681 6.90226 10.1085 8.45536C3.54166 8.24986 2.13128 4.97405 0.81563 1.91821ZM2.2376 12.7179C3.48816 10.7983 5.49276 9.24206 9.76004 9.03156C10.684 8.98576 11.7119 9.00216 12.8636 9.09316C12.3617 16.131 5.67651 19.046 0.5 16.2814C0.607881 16.039 0.713678 15.7935 0.820078 15.5466C1.23156 14.5918 1.65266 13.6156 2.2376 12.7179ZM25.512 5.92897H28.2783L30.6986 13.0405L32.9464 5.92897H35.6271L31.9093 16.131H29.4237L25.512 5.92897ZM35.2037 11.0514C35.2037 7.93956 37.3653 5.73511 40.4558 5.73511C43.5254 5.73511 45.687 7.93956 45.687 11.0514C45.687 14.121 43.482 16.3254 40.3916 16.3254C37.3213 16.3254 35.2037 14.1639 35.2037 11.0514ZM42.9623 11.1162V11.03C42.9623 9.08546 42.0108 7.91756 40.4552 7.91756C38.8775 7.91756 37.9261 9.08546 37.9261 11.03V11.1162C37.9261 13.0179 38.8549 14.1424 40.4118 14.1424C41.9894 14.1424 42.9623 13.0191 42.9623 11.1162ZM46.9043 1.58498H49.6064V16.131H46.9043V1.58498ZM51.1483 12.0463V5.92897H53.8285V11.8946C53.8285 13.2564 54.4767 14.0562 55.6874 14.0562C57.092 14.0562 57.6765 12.8675 57.6765 11.1168V5.93016H60.3567V16.1322H57.6765V14.6842C57.136 15.7433 56.2059 16.3278 54.8882 16.3278C52.5743 16.3254 51.1483 14.6824 51.1483 12.0463ZM62.8061 13.4289V8.09056H61.3575V5.92897H62.8061V4.00584L65.4208 2.53525V5.92897H67.4313V8.09056H65.3994V13.1702C65.3994 13.6673 65.6366 13.8838 66.1338 13.9046H67.3231V16.131H65.2483C63.2806 16.0228 62.8489 15.1153 62.8061 13.4289ZM68.6486 1.82225H71.4363V4.43756H68.6486V1.82225ZM68.6926 5.92897H71.3947V16.131H68.6926V5.92897ZM72.612 11.0514C72.612 7.93956 74.7736 5.73511 77.8646 5.73511C80.9337 5.73511 83.0952 7.93956 83.0952 11.0514C83.0952 14.121 80.8908 16.3254 77.7998 16.3254C74.7308 16.3254 72.612 14.1639 72.612 11.0514ZM80.3723 11.1156V11.03C80.3723 9.08546 79.4208 7.91756 77.8646 7.91756C76.287 7.91756 75.3355 9.08546 75.3355 11.03V11.1162C75.3355 13.0179 76.2644 14.1424 77.8206 14.1424C79.3988 14.1424 80.3723 13.0185 80.3723 11.1156ZM84.2917 5.92897H86.9718V7.59406C87.5124 6.40466 88.5067 5.71311 89.9552 5.71311C92.1816 5.71311 93.5 7.20456 93.5 10.0143V16.131H90.8199V10.1654C90.8199 8.73936 90.2793 8.00376 89.0264 8.00376C87.7502 8.00376 86.973 9.04146 86.973 10.9432V16.1304H84.2923L84.2917 5.92897ZM10.1085 8.45536C10.941 8.48146 11.855 8.45986 12.8636 8.38016C12.7185 6.34936 12.0578 4.66234 11.0677 3.35528C11.3049 5.11445 10.9687 6.90326 10.1091 8.45626L10.1085 8.45536ZM15.6263 1.77899H26.0222V4.13503H18.3279V7.57156H23.4503V9.92756H18.3279V13.7751H26.2606V16.1317H15.6263V1.77899Z" fill="white"/>
</svg>
